<svg width="48" height="48" viewBox="0 0 48 48" fill="none" xmlns="http://www.w3.org/2000/svg">
<path d="M33.7548 13.0064C32.5548 13.0064 31.5871 13.9742 31.5871 15.1742C31.5871 16.3742 32.5548 17.3419 33.7548 17.3419C34.9548 17.3419 35.9226 16.3742 35.9226 15.1742C35.9226 13.9742 34.9548 13.0064 33.7548 13.0064ZM24.0774 15.7935C19.0452 15.7935 14.9419 19.8968 14.9419 24.929C14.9419 29.9613 19.0452 34.0645 24.0774 34.0645C29.1097 34.0645 33.2129 29.9613 33.2129 24.929C33.2129 19.8968 29.1097 15.7935 24.0774 15.7935ZM24.0774 30.8129C20.8258 30.8129 18.2323 28.1806 18.2323 24.9677C18.2323 21.7161 20.8645 19.1226 24.0774 19.1226C27.329 19.1226 29.9226 21.7548 29.9226 24.9677C29.9226 28.1806 27.2903 30.8129 24.0774 30.8129ZM42.5419 17.3419C42.5419 11.1871 37.5484 6.19354 31.3935 6.19354H16.6452C10.4903 6.19354 5.49677 11.1871 5.49677 17.3419V32.0903C5.49677 38.2452 10.4903 43.2387 16.6452 43.2387H31.3548C37.5097 43.2387 42.5032 38.2452 42.5032 32.0903V17.3419H42.5419ZM39.0194 32.0516C39.0194 36.271 35.5742 39.7161 31.3548 39.7161H16.6452C12.4258 39.7161 8.98065 36.271 8.98065 32.0516V17.3419C8.98065 13.0839 12.3871 9.67741 16.6452 9.67741H31.3548C35.5742 9.67741 39.0194 13.1226 39.0194 17.3419V32.0516Z" fill="#C2C2C2"/>
</svg>
