<svg width="48" height="48" viewBox="0 0 48 48" fill="none" xmlns="http://www.w3.org/2000/svg">
<path d="M39.6387 27.3678V38.4C39.6387 38.671 39.4065 38.9032 39.1355 38.9032H33.4452C33.1742 38.9032 32.9419 38.671 32.9419 38.4V28.1419C32.9419 25.4323 31.9742 23.5742 29.5355 23.5742C27.6774 23.5742 26.5936 24.8129 26.0903 26.0129C25.8968 26.4387 25.8581 27.0581 25.8581 27.6387V38.4C25.8581 38.671 25.6258 38.9032 25.3549 38.9032H19.7032C19.4323 38.9032 19.2 38.671 19.2 38.4C19.2 35.6516 19.2774 22.3742 19.2 19.2774C19.2 19.0065 19.4323 18.7742 19.7032 18.7742H25.3936C25.6645 18.7742 25.8968 19.0065 25.8968 19.2774V21.6387C25.8968 21.6774 25.8581 21.6774 25.8581 21.7161H25.8968V21.6387C26.7871 20.2839 28.3742 18.3097 31.9355 18.3097C36.3484 18.3097 39.6387 21.2129 39.6387 27.3678ZM9.29033 38.9419H14.9807C15.2516 38.9419 15.4839 38.7097 15.4839 38.4387V19.2774C15.4839 19.0065 15.2516 18.7742 14.9807 18.7742H9.29033C9.01937 18.7742 8.78711 19.0065 8.78711 19.2774V38.4387C8.82582 38.7097 9.01937 38.9419 9.29033 38.9419Z" fill="#C2C2C2"/>
<path d="M11.9613 16.2581C13.9495 16.2581 15.5613 14.6463 15.5613 12.6581C15.5613 10.6699 13.9495 9.05807 11.9613 9.05807C9.97307 9.05807 8.3613 10.6699 8.3613 12.6581C8.3613 14.6463 9.97307 16.2581 11.9613 16.2581Z" fill="#C2C2C2"/>
</svg>
