<svg width="48" height="48" viewBox="0 0 48 48" fill="none" xmlns="http://www.w3.org/2000/svg">
<path fill-rule="evenodd" clip-rule="evenodd" d="M24.7742 6.11612C14.9032 6.11612 6.89032 14.129 6.89032 24C6.89032 27.4839 7.85806 30.8129 9.75484 33.7161L7.04516 39.7161C6.8129 40.2581 6.89032 40.9161 7.27742 41.3806C7.58709 41.729 8.0129 41.9226 8.47742 41.9226C8.63226 41.9226 8.74838 41.9226 8.90322 41.8839L16.4129 39.8322C19.0064 41.2258 21.9097 41.9613 24.8516 41.9613C34.7226 41.9613 42.7355 33.9484 42.7355 24.0774C42.6581 14.129 34.6452 6.11612 24.7742 6.11612ZM24.7742 38.7871C22.1419 38.7871 19.5871 38.0903 17.3419 36.7742C17.1097 36.6193 16.8387 36.5419 16.5677 36.5419C16.4129 36.5419 16.2968 36.5419 16.1419 36.5806L11.2258 37.9355L12.929 34.1806C13.1613 33.6774 13.0839 33.0581 12.7742 32.6322C10.9548 30.1161 9.98709 27.1355 9.98709 24C9.98709 15.871 16.6452 9.21289 24.7742 9.21289C32.9032 9.21289 39.5613 15.8322 39.5613 24C39.5613 32.129 32.9419 38.7871 24.7742 38.7871Z" fill="#C2C2C2"/>
<path fill-rule="evenodd" clip-rule="evenodd" d="M31.6645 26.671C30.929 26.2064 29.9226 25.7032 29.071 26.0903C28.4129 26.3613 27.9484 27.4452 27.5226 27.9871C27.2903 28.2581 27.0194 28.2968 26.671 28.1806C24.1161 27.1742 22.1806 25.471 20.7871 23.1484C20.5548 22.8 20.5935 22.4903 20.8645 22.1419C21.2903 21.6387 21.8323 21.0581 21.9484 20.4C22.0645 19.7419 21.7548 18.929 21.4839 18.3484C21.1355 17.5742 20.7484 16.4903 19.9742 16.0645C19.2774 15.6774 18.3484 15.871 17.729 16.4129C16.6452 17.3032 16.1032 18.6968 16.1419 20.0516C16.1419 20.4387 16.1806 20.8258 16.2968 21.2129C16.529 22.1032 16.9161 22.9548 17.4194 23.7677C17.7677 24.3871 18.1548 24.9677 18.5806 25.5097C19.9355 27.3677 21.6387 28.9548 23.5742 30.1548C24.5419 30.7355 25.6258 31.2774 26.7097 31.6258C27.9484 32.0129 29.0323 32.4387 30.3484 32.2064C31.7419 31.9355 33.0968 31.0839 33.6387 29.7677C33.7936 29.3806 33.871 28.9161 33.7936 28.529C33.5226 27.6 32.3613 27.0968 31.6645 26.671Z" fill="#C2C2C2"/>
</svg>
